<?xml version="1.0" encoding="UTF-8" standalone="no"?>
<svg
   width="500"
   height="500"
   viewBox="0 0 500 500"
   fill="none"
   version="1.1"
   id="svg17"
   sodipodi:docname="logo.svg"
   inkscape:version="1.3.2 (091e20e, 2023-11-25, custom)"
   xmlns:inkscape="http://www.inkscape.org/namespaces/inkscape"
   xmlns:sodipodi="http://sodipodi.sourceforge.net/DTD/sodipodi-0.dtd"
   xmlns="http://www.w3.org/2000/svg"
   xmlns:svg="http://www.w3.org/2000/svg">
  <defs
     id="defs17" />
  <sodipodi:namedview
     id="namedview17"
     pagecolor="#505050"
     bordercolor="#eeeeee"
     borderopacity="1"
     inkscape:showpageshadow="0"
     inkscape:pageopacity="0"
     inkscape:pagecheckerboard="0"
     inkscape:deskcolor="#505050"
     inkscape:zoom="0.54189561"
     inkscape:cx="262.96578"
     inkscape:cy="425.35868"
     inkscape:window-width="1920"
     inkscape:window-height="1111"
     inkscape:window-x="-9"
     inkscape:window-y="-9"
     inkscape:window-maximized="1"
     inkscape:current-layer="svg17" />
  <circle
     style="fill:#ffffff;stroke-width:42.3163;stroke-linecap:round"
     id="path18"
     cx="250"
     cy="250"
     r="250" />
  <g
     id="g18"
     transform="matrix(3.2905089,0,0,3.2905089,101.25156,141.41321)">
    <path
       d="M 45.2051,53.8866 81.2206,63.537 65.9982,48.3146 Z"
       fill="#02031c"
       id="path1" />
    <path
       d="M 81.2206,63.5371 90.4106,66 72.7266,0 45.2051,27.5215 Z"
       fill="#ffff00"
       id="path2" />
    <path
       d="M 86.8162,52.5813 86.6148,51.8292 C 68.1865,41.5327 61.9264,18.0895 72.7265,0 l -1.461,1.46103 c -4.3739,8.28352 -5.5354,17.86457 -3.2307,26.99827 2.5663,10.1723 9.1468,18.7396 18.3066,23.8578 z"
       fill="#ffff00"
       id="path3" />
    <path
       d="M 65.9992,48.3145 9.19043,63.5369 45.206,27.5214 Z"
       fill="#0f0d23"
       id="path4" />
    <path
       d="M 9.18996,63.5371 0,66 17.6841,0 45.2055,27.5215 Z"
       fill="#f98afe"
       id="path5" />
    <path
       d="M 9.18985,63.5371 8.09375,63.8314 44.8039,27.12 l 0.4015,0.4015 z"
       fill="#f98afe"
       id="path6" />
    <path
       d="M 9.19043,63.5369 12.8855,59.8432 24.4128,48.3145 45.206,27.5214 28.2583,49.3452 19.3535,60.8137 11.0386,63.0412 Z"
       fill="#0f0d23"
       id="path7" />
    <path
       d="m 51.0322,55.4484 -5.8271,-1.5618 20.7931,-5.572 z"
       fill="#02031c"
       id="path8" />
    <path
       d="m 81.2207,63.5371 1.096,0.2943 L 45.6066,27.12 45.2051,27.5215 Z"
       fill="#ffff00"
       id="path9" />
    <path
       d="M 81.221,63.5371 45.2159,27.532 42.2441,30.4828 Z"
       fill="#0f0d23"
       id="path10" />
    <path
       d="M 86.6152,51.8292 81.569,32.9993 72.727,0 c -10.5882,17.7351 -4.7938,40.6956 12.9412,51.2838 0.314,0.187 0.6292,0.3688 0.947,0.5454 z"
       fill="#02031c"
       id="path11" />
    <path
       d="M 86.6152,51.8292 84.8337,45.1807 C 71.2856,34.9012 65.8469,16.4088 72.727,0 62.1388,17.7351 67.9332,40.6956 85.6682,51.2838 c 0.314,0.187 0.6292,0.3688 0.947,0.5454 z"
       fill="#0f0d23"
       id="path12" />
    <path
       d="M 3.7959,51.8292 17.6842,0 c 10.8001,18.0895 4.54,41.5327 -13.8883,51.8292 z"
       fill="#02031c"
       id="path13" />
    <path
       d="M 3.7959,51.8292 5.57739,45.1807 C 19.1256,34.9012 24.5642,16.4088 17.6842,0 28.2724,17.7351 22.478,40.6956 4.74289,51.2838 4.42897,51.4708 4.11374,51.6526 3.7959,51.8292 Z"
       fill="#0f0d23"
       id="path14" />
    <path
       d="M 3.59473,52.5813 3.79615,51.8292 C 22.2245,41.5327 28.4845,18.0895 17.6844,0 l 1.4611,1.46103 C 23.5194,9.74455 24.6809,19.3256 22.3762,28.4593 19.8099,38.6316 13.2294,47.1989 4.06953,52.3171 Z"
       fill="#f98afe"
       id="path15" />
    <path
       d="m 17.6836,0 27.5202,27.5202 -2.5454,2.5479 C 36.3827,35.4217 27.6256,36.9312 19.915,33.983 24.493,23.3464 24.0901,10.7308 17.6836,0 Z"
       fill="#f98afe"
       id="path16" />
    <path
       d="m 72.727,0 -27.5202,27.5202 2.5453,2.5479 c 6.2758,5.3536 15.0341,6.8631 22.7447,3.9149 C 65.9149,23.3346 66.3309,10.7138 72.727,0 Z"
       fill="#ffff00"
       id="path17" />
  </g>
</svg>
